HIERARCHY
ROOT Hips
{
  OFFSET -35.6603 100.479 63.9497
  CHANNELS 6 Xposition Yposition Zposition Zrotation Xrotation Yrotation
  JOINT ToSpine
  {
    OFFSET -2.69724 7.43032 -0.144315
    CHANNELS 3 Zrotation Xrotation Yrotation
    JOINT Spine
    {
      OFFSET -0.0310711 10.7595 1.96963
      CHANNELS 3 Zrotation Xrotation Yrotation
      JOINT Spine1
      {
        OFFSET 13.1342 3.43533 0.764692
        CHANNELS 3 Zrotation Xrotation Yrotation
        JOINT Neck
        {
          OFFSET 29.8703 7.82586 -0.130764
          CHANNELS 3 Zrotation Xrotation Yrotation
          JOINT Head
          {
            OFFSET 9.52751 0.295786 -0.907742
            CHANNELS 3 Zrotation Xrotation Yrotation
            End Site
            {
              OFFSET 16.4037 0.713936 2.7358
            }
          }
        }
        JOINT LeftShoulder
        {
          OFFSET 27.5574 4.95586 2.47156
          CHANNELS 3 Zrotation Xrotation Yrotation
          JOINT LeftArm
          {
            OFFSET 1.20734 -0.998971 20.1238
            CHANNELS 3 Zrotation Xrotation Yrotation
            JOINT LeftForeArm
            {
              OFFSET 26.8049 -0.0536703 -0.155908
              CHANNELS 3 Zrotation Xrotation Yrotation
              JOINT LeftHand
              {
                OFFSET 26.6817 0 0.320147
                CHANNELS 3 Zrotation Xrotation Yrotation
                End Site
                {
                  OFFSET 18.6119 0 0.382219
                }
              }
            }
          }
        }
        JOINT RightShoulder
        {
          OFFSET 27.5927 4.71444 -2.65209
          CHANNELS 3 Zrotation Xrotation Yrotation
          JOINT RightArm
          {
            OFFSET 2.83739 -1.17114 -18.7564
            CHANNELS 3 Zrotation Xrotation Yrotation
            JOINT RightForeArm
            {
              OFFSET 28.839 -0.0548439 1.22491
              CHANNELS 3 Zrotation Xrotation Yrotation
              JOINT RightHand
              {
                OFFSET 26.5114 0 -0.101894
                CHANNELS 3 Zrotation Xrotation Yrotation
                End Site
                {
                  OFFSET 18.2168 0 0
                }
              }
            }
          }
        }
      }
    }
  }
  JOINT LeftUpLeg
  {
    OFFSET -4.76168 -1.9167 -10.2353
    CHANNELS 3 Zrotation Xrotation Yrotation
    JOINT LeftLeg
    {
      OFFSET 2.55951 -42.0585 -8.02213
      CHANNELS 3 Zrotation Xrotation Yrotation
      JOINT LeftFoot
      {
        OFFSET 3.16357 -42.5282 -3.95426
        CHANNELS 3 Zrotation Xrotation Yrotation
        JOINT LeftToeBase
        {
          OFFSET 0.346054 -6.02161 12.8035
          CHANNELS 3 Zrotation Xrotation Yrotation
          End Site
          {
            OFFSET 0.134235 -1.35082 5.13018
          }
        }
      }
    }
  }
  JOINT RightUpLeg
  {
    OFFSET -4.94151 -1.41743 10.6446
    CHANNELS 3 Zrotation Xrotation Yrotation
    JOINT RightLeg
    {
      OFFSET -2.56294 -42.0364 -7.94377
      CHANNELS 3 Zrotation Xrotation Yrotation
      JOINT RightFoot
      {
        OFFSET -3.0952 -42.555 -4.02241
        CHANNELS 3 Zrotation Xrotation Yrotation
        JOINT RightToeBase
        {
          OFFSET -0.0828122 -6.13587 12.8035
          CHANNELS 3 Zrotation Xrotation Yrotation
          End Site
          {
            OFFSET -0.131328 -1.35082 5.13018
          }
        }
      }
    }
  }
}
MOTION
Frames:	15
Frame Time:	0.0333333
-31.3366 91.1398 16.99 73.3794 -20.2217 -4.98761 -70.1915 0 88.8779 75.1088 71.2641 6.74716 5.42267 21.3002 3.0068 -123.837 34.3686 157.744 166.339 76.7272 -136.825 0.697956 -13.687 -20.5418 -58.5996 31.6578 -150.102 24.152 -4.7026 -99.6078 0.420957 0.00057553 0.35866 -1.91214 6.37977 44.439 -127.492 -11.9266 76.0063 9.98168 0.0403805 90.113 0.58676 0.000331362 0.0646654 -51.0572 19.5462 101.428 -3.26261 45.8438 -6.98566 -3.80895 -15.0832 -1.31126 4.80105 -11.3438 6.36022 -40.6574 -12.7579 91.051 2.13952 36.7008 5.82531 -1.04673 -1.78995 0.403653 2.46435 -11.8572 -17.4386 
-31.42 90.7786 17.2139 73.3603 -20.4363 -5.43573 -70.1915 0 88.8779 75.9236 71.473 5.82271 5.26433 21.5706 2.67512 -124.068 34.6368 157.811 165.308 76.8343 -135.687 0.676433 -13.8286 -20.7778 -59.1854 31.2025 -149.931 24.0778 -4.64283 -99.5151 0.420957 0.00057553 0.35866 -1.90136 6.4149 44.1141 -127.355 -12.2892 75.7004 10.2401 0.0842844 90.248 0.58676 0.000331362 0.0646654 -50.8373 19.6405 101.647 -3.39643 46.732 -7.12319 -4.14115 -15.9469 -1.41724 4.61742 -11.0296 6.48977 -39.2861 -12.8532 91.6117 2.30132 38.9968 5.80964 -1.96858 -2.64191 0.557799 2.52579 -11.9133 -18.4864 
-31.5621 90.2543 17.5887 73.2827 -20.7057 -6.28271 -70.1915 0 88.8779 77.2775 71.848 3.79841 4.56771 21.9168 2.69777 -124.332 34.586 158.004 166.281 76.773 -136.106 0.663969 -13.9373 -20.8373 -59.4299 30.8113 -149.6 24.4725 -4.51804 -99.0719 0.420957 0.00057553 0.35866 -1.89361 6.43651 43.899 -126.586 -12.5399 75.4632 11.011 0.175389 90.6534 0.58676 0.000331362 0.0646654 -50.6043 19.6818 102.255 -3.57747 47.7671 -7.4626 -4.20398 -16.2126 -1.44946 5.01412 -11.7296 6.36317 -37.0873 -12.8445 93.1418 2.67108 42.6014 6.17336 -1.511 -4.47799 0.633112 2.81297 -10.8679 -22.2108 
-31.6677 89.5759 18.1494 72.9921 -20.9436 -7.44669 -70.1915 0 88.8779 78.6778 72.0544 1.9193 3.68866 22.2906 2.05754 -124.696 34.5958 158.421 166.212 76.6211 -136.052 0.698254 -13.6095 -20.968 -59.4702 29.8061 -149.218 23.8718 -4.21811 -98.6935 0.420957 0.00057553 0.35866 -1.91043 6.42056 44.2254 -125.563 -12.5977 75.5721 13.4837 0.235928 90.7496 0.58676 0.000331362 0.0646654 -50.1711 19.8509 103.158 -3.9239 49.0566 -8.64695 -4.63732 -16.8251 -1.5335 4.98101 -11.871 7.84091 -34.2929 -12.8782 94.5555 3.06276 46.7959 5.8796 -2.91972 -5.69208 0.821518 2.6288 -13.0034 -21.7526 
-31.7844 88.925 19.0145 72.3477 -20.791 -8.72041 -70.1915 0 88.8779 77.9196 71.9924 1.85225 3.0375 22.3739 1.75935 -125.649 34.8343 159.526 164.508 76.2942 -134.758 0.705721 -13.5634 -20.9328 -59.6418 30.0075 -147.928 25.7151 -4.28168 -98.0772 0.420957 0.00057553 0.35866 -1.86762 6.51419 43.1641 -124.617 -14.1235 75.2148 15.8898 0.334519 90.9312 0.58676 0.000331362 0.0646654 -49.4421 19.9074 103.694 -4.17936 49.9764 -9.59072 -4.88149 -16.8373 -1.53972 5.32318 -12.6146 9.04501 -31.2646 -13.0755 95.3402 3.95806 51.1302 7.30317 -5.23888 -6.95692 1.04904 2.85449 -13.3523 -26.9868 
-31.9383 88.526 20.5275 72.3594 -20.2234 -9.41335 -70.1915 0 88.8779 80.0661 71.7747 -1.9157 1.60377 21.9294 2.11026 -126.214 34.768 160.293 164.462 76.0011 -135.34 0.769573 -12.969 -20.9683 -59.2327 29.6988 -145.988 26.1189 -4.2463 -97.8561 0.420957 0.00057553 0.35866 -1.85014 6.31978 43.7831 -122.472 -14.2851 76.8829 17.6718 0.323691 90.7812 0.58676 0.000331362 0.0646654 -49.8268 20.1802 104.043 -4.11418 49.335 -10.118 -4.96331 -15.4236 -1.36092 5.81499 -13.4787 9.30821 -29.7364 -13.1018 95.1678 4.5263 54.6247 6.97533 -7.28259 -8.72575 1.21265 2.80709 -14.3515 -28.9313 
-31.9547 88.4539 22.7818 72.6409 -20.2485 -9.12227 -70.1915 0 88.8779 81.056 71.7275 -3.90383 1.10356 21.5893 2.5546 -127.111 34.9751 160.934 163.781 75.97 -135.937 0.885811 -11.9474 -20.5401 -58.4982 30.9223 -143.697 28.5051 -4.48493 -97.4687 0.420957 0.00057553 0.35866 -1.83794 6.46588 42.9285 -120.4 -15.7256 77.8449 18.8184 0.491231 91.1962 0.58676 0.000331362 0.0646654 -51.2528 20.5984 102.063 -3.56991 47.1355 -8.10389 -5.53127 -13.1911 -1.06058 6.51816 -14.5284 7.64089 -30.0097 -11.3435 94.7634 4.82463 56.4243 6.1015 -6.91503 -11.2886 1.24584 2.59643 -15.7824 -28.5452 
-31.9226 88.7433 25.8669 72.8481 -21.283 -7.16581 -70.1915 0 88.8779 82.8876 71.6323 -3.83671 1.03741 21.8952 1.06489 -126.908 34.8539 161.823 161.571 75.398 -134.538 1.02546 -10.6007 -20.4197 -58.8558 31.7371 -139.332 29.8778 -5.41503 -98.589 0.420957 0.00057553 0.35866 -1.97537 6.87777 43.1455 -119.042 -16.4839 80.0439 20.2969 0.681611 91.6069 0.58676 0.000331362 0.0646654 -52.525 22.3842 98.1585 -2.90404 44.8181 -4.54818 -3.75961 -8.30304 -0.547672 7.4647 -16.3034 10.0477 -32.2223 -6.24241 94.7066 4.2855 55.8371 3.49447 -5.80333 -13.3398 1.26632 2.97922 -12.1725 -26.7765 
-31.9868 89.1398 29.4635 72.6298 -21.6062 -4.09519 -70.1915 0 88.8779 84.8608 71.9167 -4.37021 0.0724212 22.2593 1.14638 -127.579 35.088 161.633 159.28 75.4308 -133.778 1.11541 -9.71904 -19.8578 -59.1843 32.8561 -136.301 29.3715 -6.12096 -99.9806 0.420957 0.00057553 0.35866 -1.86818 6.95149 41.3549 -117.866 -16.5542 81.3075 23.1681 1.25301 92.6776 0.58676 0.000331362 0.0646654 -49.8235 25.6769 95.5742 -2.0417 46.7995 1.56884 -4.09566 -6.74377 -0.331939 5.72022 -13.9951 17.1163 -34.6038 0.0429743 94.1159 3.29211 54.0453 -0.418329 -4.61311 -14.6335 1.30072 3.02041 -8.50951 -22.3577 
-32.5761 89.6223 32.9407 73.1607 -19.4177 -1.59404 -70.1915 0 88.8779 94.1099 71.4757 -14.1453 -3.04548 22.2497 0.655791 -127.455 35.76 160.062 151.915 75.5003 -127.827 1.20891 -8.55481 -18.1812 -61.1725 31.5725 -136.342 29.7032 -6.31694 -100.176 0.420957 0.00057553 0.35866 -1.72148 7.46176 37.4309 -117.763 -17.3176 79.5525 21.0673 1.9058 94.6691 0.58676 0.000331362 0.0646654 -42.9714 26.0703 94.6123 -3.77883 56.0182 1.40331 -3.77995 -8.36621 -0.538103 5.45791 -13.7783 18.6039 -36.4001 3.07184 91.7243 2.73712 53.0474 -2.40418 -3.1392 -15.8993 1.3681 3.39059 -5.89763 -24.3772 
-33.2972 90.259 35.8765 74.1909 -16.3913 1.25021 -70.1915 0 88.8779 104.058 70.6648 -23.7314 -4.59282 23.0564 -1.72588 -126.208 35.6546 156.147 149.463 76.1382 -125.274 1.19069 -8.30602 -16.2455 -63.3144 28.1823 -140.798 29.6937 -5.1487 -98.2179 0.420957 0.00057553 0.35866 -1.42959 8.33587 31.1698 -118.002 -18.7986 72.8815 12.1113 1.78298 97.9109 0.58676 0.000331362 0.0646654 -35.0141 23.5103 95.7493 -8.54282 69.1208 2.36967 -2.81224 -10.8457 -0.849538 8.13169 -17.4442 15.9793 -38.3942 4.91558 87.7215 2.12946 51.4725 -4.93669 -1.63802 -16.1939 1.4164 3.27502 -3.08947 -21.1625 
-33.5639 92.1608 39.1204 74.2846 -14.193 4.66726 -70.1915 0 88.8779 105.525 70.9598 -27.3969 -5.50666 23.0688 -0.194971 -121.128 34.1493 152.146 146.459 75.6182 -119.801 1.15126 -8.75885 -15.4827 -62.949 24.4125 -144.399 29.2356 -3.68703 -95.0622 0.420957 0.00057553 0.35866 -1.13981 8.42207 27.4365 -114.792 -18.8045 65.0779 4.07959 0.884561 101.557 0.58676 0.000331362 0.0646654 -30.3399 22.0957 101.34 -17.823 76.6918 4.74875 -5.27043 -12.6896 -1.01713 9.64719 -19.6867 13.8345 -39.928 6.95185 83.0081 1.7254 48.5537 -4.56746 1.40298 -10.3128 0.752777 2.40335 -5.81424 -14.2912 
-33.6641 93.9318 42.5157 75.0876 -12.1564 11.2703 -70.1915 0 88.8779 103.884 70.6473 -27.9435 -3.4639 21.5549 2.85598 -116.033 30.1443 147.012 153.854 75.2869 -123.434 1.05926 -10.2697 -14.4195 -61.1107 21.6642 -147.179 28.2632 0.120202 -91.108 0.420957 0.00057553 0.35866 -1.0326 7.45674 27.9969 -113.723 -19.3964 59.5405 -0.425588 -0.06527 103.485 0.58676 0.000331362 0.0646654 -28.8348 22.0497 103.981 -21.1976 77.783 4.04349 -6.8056 -9.45366 -0.493703 9.25528 -19.3778 4.38145 -38.9734 9.46014 75.2816 2.15144 49.7459 0.223675 -6.19219 8.58736 1.02798 1.9784 -19.1225 3.45805 
-34.3616 95.9335 45.1663 77.8744 -11.7059 20.5123 -70.1915 0 88.8779 112.476 68.141 -36.9358 -2.43237 19.0307 7.50255 -112.986 26.2695 145.443 163.043 74.0421 -129.404 0.963261 -12.3345 -14.0021 -59.2676 22.2395 -145.795 28.4552 1.86011 -84.0284 0.420957 0.00057553 0.35866 -0.917639 5.98632 30.0083 -113.475 -22.2934 57.7453 -8.39756 -1.94453 102.988 0.58676 0.000331362 0.0646654 -32.8988 22.9417 100.266 -10.5001 68.1956 -11.3058 -4.46379 1.14 0.569897 8.96353 -18.4233 7.53779 -34.3418 13.3732 73.8651 8.67719 57.9009 20.9075 4.17415 15.4815 -2.16545 1.80277 -21.715 -31.4908 
-34.6347 96.847 47.4669 79.435 -10.8252 26.5918 -70.1915 0 88.8779 118.657 64.0928 -44.5725 -4.42298 16.3545 9.49472 -111.226 23.2753 146.097 168.286 72.0381 -133.151 0.988687 -12.0888 -13.5816 -56.2728 21.4832 -143.923 32.0631 8.12424 -77.0255 0.420957 0.00057553 0.35866 -1.02285 5.54486 33.4306 -111.929 -22.9151 56.4798 -16.1527 -3.35973 101.355 0.58676 0.000331362 0.0646654 -38.9425 22.4852 97.1188 -6.48499 57.3586 -17.7378 0.0110365 2.39488 0.0931474 13.7618 -23.7359 31.481 -24.7264 11.5024 77.2127 11.0763 73.9607 9.86709 3.36731 9.91918 -1.36498 2.27078 -20.1733 -15.2465 
